<mxfile host="app.diagrams.net" modified="2021-05-18T22:44:28.440Z" agent="5.0 (Windows NT 10.0; Win64; x64) AppleWebKit/537.36 (KHTML, like Gecko) Chrome/89.0.4389.128 Safari/537.36 OPR/75.0.3969.259" etag="ud7ZcJ9QMITzgoO9RUkF" version="14.6.13" type="github">
  <diagram name="Page-1" id="929967ad-93f9-6ef4-fab6-5d389245f69c">
    <mxGraphModel dx="1237" dy="580" grid="1" gridSize="10" guides="1" tooltips="1" connect="1" arrows="1" fold="1" page="1" pageScale="1.5" pageWidth="1169" pageHeight="826" background="none" math="0" shadow="0">
      <root>
        <mxCell id="0" style=";html=1;" />
        <mxCell id="1" style=";html=1;" parent="0" />
        <mxCell id="msxF5Zu8iGyvd2vgmSOW-40" style="edgeStyle=orthogonalEdgeStyle;rounded=0;orthogonalLoop=1;jettySize=auto;html=1;" edge="1" parent="1" source="msxF5Zu8iGyvd2vgmSOW-1" target="msxF5Zu8iGyvd2vgmSOW-23">
          <mxGeometry relative="1" as="geometry" />
        </mxCell>
        <mxCell id="msxF5Zu8iGyvd2vgmSOW-50" value="Carrega" style="edgeLabel;html=1;align=center;verticalAlign=middle;resizable=0;points=[];" vertex="1" connectable="0" parent="msxF5Zu8iGyvd2vgmSOW-40">
          <mxGeometry x="-0.2826" y="-2" relative="1" as="geometry">
            <mxPoint as="offset" />
          </mxGeometry>
        </mxCell>
        <mxCell id="msxF5Zu8iGyvd2vgmSOW-51" value="0,1" style="edgeLabel;html=1;align=center;verticalAlign=middle;resizable=0;points=[];" vertex="1" connectable="0" parent="msxF5Zu8iGyvd2vgmSOW-40">
          <mxGeometry x="0.8917" y="-3" relative="1" as="geometry">
            <mxPoint as="offset" />
          </mxGeometry>
        </mxCell>
        <mxCell id="msxF5Zu8iGyvd2vgmSOW-41" style="edgeStyle=orthogonalEdgeStyle;rounded=0;orthogonalLoop=1;jettySize=auto;html=1;entryX=0.663;entryY=0.016;entryDx=0;entryDy=0;entryPerimeter=0;" edge="1" parent="1" source="msxF5Zu8iGyvd2vgmSOW-1" target="msxF5Zu8iGyvd2vgmSOW-9">
          <mxGeometry relative="1" as="geometry" />
        </mxCell>
        <mxCell id="msxF5Zu8iGyvd2vgmSOW-52" value="0,1" style="edgeLabel;html=1;align=center;verticalAlign=middle;resizable=0;points=[];" vertex="1" connectable="0" parent="msxF5Zu8iGyvd2vgmSOW-41">
          <mxGeometry x="0.1721" relative="1" as="geometry">
            <mxPoint as="offset" />
          </mxGeometry>
        </mxCell>
        <mxCell id="msxF5Zu8iGyvd2vgmSOW-42" style="edgeStyle=orthogonalEdgeStyle;rounded=0;orthogonalLoop=1;jettySize=auto;html=1;" edge="1" parent="1" source="msxF5Zu8iGyvd2vgmSOW-1" target="msxF5Zu8iGyvd2vgmSOW-30">
          <mxGeometry relative="1" as="geometry" />
        </mxCell>
        <mxCell id="msxF5Zu8iGyvd2vgmSOW-46" value="carrega" style="edgeLabel;html=1;align=center;verticalAlign=middle;resizable=0;points=[];" vertex="1" connectable="0" parent="msxF5Zu8iGyvd2vgmSOW-42">
          <mxGeometry x="-0.3014" y="-2" relative="1" as="geometry">
            <mxPoint as="offset" />
          </mxGeometry>
        </mxCell>
        <mxCell id="msxF5Zu8iGyvd2vgmSOW-49" value="1,0" style="edgeLabel;html=1;align=center;verticalAlign=middle;resizable=0;points=[];" vertex="1" connectable="0" parent="msxF5Zu8iGyvd2vgmSOW-42">
          <mxGeometry x="0.6841" y="-3" relative="1" as="geometry">
            <mxPoint x="-2" y="5" as="offset" />
          </mxGeometry>
        </mxCell>
        <mxCell id="msxF5Zu8iGyvd2vgmSOW-43" style="edgeStyle=orthogonalEdgeStyle;rounded=0;orthogonalLoop=1;jettySize=auto;html=1;" edge="1" parent="1" source="msxF5Zu8iGyvd2vgmSOW-1" target="msxF5Zu8iGyvd2vgmSOW-5">
          <mxGeometry relative="1" as="geometry" />
        </mxCell>
        <mxCell id="msxF5Zu8iGyvd2vgmSOW-54" value="carrega" style="edgeLabel;html=1;align=center;verticalAlign=middle;resizable=0;points=[];" vertex="1" connectable="0" parent="msxF5Zu8iGyvd2vgmSOW-43">
          <mxGeometry x="-0.5401" y="-1" relative="1" as="geometry">
            <mxPoint x="-13" y="-1" as="offset" />
          </mxGeometry>
        </mxCell>
        <mxCell id="msxF5Zu8iGyvd2vgmSOW-55" value="0,1" style="edgeLabel;html=1;align=center;verticalAlign=middle;resizable=0;points=[];" vertex="1" connectable="0" parent="msxF5Zu8iGyvd2vgmSOW-43">
          <mxGeometry x="0.431" y="1" relative="1" as="geometry">
            <mxPoint x="23" as="offset" />
          </mxGeometry>
        </mxCell>
        <mxCell id="msxF5Zu8iGyvd2vgmSOW-1" value="Jogador" style="swimlane;fontStyle=1;align=center;verticalAlign=top;childLayout=stackLayout;horizontal=1;startSize=26;horizontalStack=0;resizeParent=1;resizeParentMax=0;resizeLast=0;collapsible=1;marginBottom=0;" vertex="1" parent="1">
          <mxGeometry x="650" y="250" width="250" height="200" as="geometry" />
        </mxCell>
        <mxCell id="msxF5Zu8iGyvd2vgmSOW-2" value="+ nickname: String&#xa;+ Skin_personagem: String&#xa;+ Colete_capacete: Boolean" style="text;strokeColor=none;fillColor=none;align=left;verticalAlign=top;spacingLeft=4;spacingRight=4;overflow=hidden;rotatable=0;points=[[0,0.5],[1,0.5]];portConstraint=eastwest;" vertex="1" parent="msxF5Zu8iGyvd2vgmSOW-1">
          <mxGeometry y="26" width="250" height="54" as="geometry" />
        </mxCell>
        <mxCell id="msxF5Zu8iGyvd2vgmSOW-3" value="" style="line;strokeWidth=1;fillColor=none;align=left;verticalAlign=middle;spacingTop=-1;spacingLeft=3;spacingRight=3;rotatable=0;labelPosition=right;points=[];portConstraint=eastwest;" vertex="1" parent="msxF5Zu8iGyvd2vgmSOW-1">
          <mxGeometry y="80" width="250" height="8" as="geometry" />
        </mxCell>
        <mxCell id="msxF5Zu8iGyvd2vgmSOW-4" value="+ facada(): void&#xa;+atirar():void&#xa;+arremesar:void&#xa;+para_frente():void&#xa;+para_tras():void&#xa;+para_direita():void&#xa;+para_esquerda():void" style="text;strokeColor=none;fillColor=none;align=left;verticalAlign=top;spacingLeft=4;spacingRight=4;overflow=hidden;rotatable=0;points=[[0,0.5],[1,0.5]];portConstraint=eastwest;" vertex="1" parent="msxF5Zu8iGyvd2vgmSOW-1">
          <mxGeometry y="88" width="250" height="112" as="geometry" />
        </mxCell>
        <mxCell id="msxF5Zu8iGyvd2vgmSOW-5" value="Fuzil" style="swimlane;fontStyle=1;align=center;verticalAlign=top;childLayout=stackLayout;horizontal=1;startSize=26;horizontalStack=0;resizeParent=1;resizeParentMax=0;resizeLast=0;collapsible=1;marginBottom=0;" vertex="1" parent="1">
          <mxGeometry x="1040" y="210" width="160" height="160" as="geometry">
            <mxRectangle x="620" y="340" width="100" height="26" as="alternateBounds" />
          </mxGeometry>
        </mxCell>
        <mxCell id="msxF5Zu8iGyvd2vgmSOW-60" value="+nome:String&#xa;+ Skin: String&#xa;+ Partene:String&#xa;+Nivel_desgate: float&#xa;+Dano: float" style="text;strokeColor=none;fillColor=none;align=left;verticalAlign=top;spacingLeft=4;spacingRight=4;overflow=hidden;rotatable=0;points=[[0,0.5],[1,0.5]];portConstraint=eastwest;" vertex="1" parent="msxF5Zu8iGyvd2vgmSOW-5">
          <mxGeometry y="26" width="160" height="84" as="geometry" />
        </mxCell>
        <mxCell id="msxF5Zu8iGyvd2vgmSOW-7" value="" style="line;strokeWidth=1;fillColor=none;align=left;verticalAlign=middle;spacingTop=-1;spacingLeft=3;spacingRight=3;rotatable=0;labelPosition=right;points=[];portConstraint=eastwest;" vertex="1" parent="msxF5Zu8iGyvd2vgmSOW-5">
          <mxGeometry y="110" width="160" height="8" as="geometry" />
        </mxCell>
        <mxCell id="msxF5Zu8iGyvd2vgmSOW-63" value="+ spray(): void&#xa;+animacao():void" style="text;strokeColor=none;fillColor=none;align=left;verticalAlign=top;spacingLeft=4;spacingRight=4;overflow=hidden;rotatable=0;points=[[0,0.5],[1,0.5]];portConstraint=eastwest;" vertex="1" parent="msxF5Zu8iGyvd2vgmSOW-5">
          <mxGeometry y="118" width="160" height="42" as="geometry" />
        </mxCell>
        <mxCell id="msxF5Zu8iGyvd2vgmSOW-9" value="Pistola" style="swimlane;fontStyle=1;align=center;verticalAlign=top;childLayout=stackLayout;horizontal=1;startSize=26;horizontalStack=0;resizeParent=1;resizeParentMax=0;resizeLast=0;collapsible=1;marginBottom=0;" vertex="1" parent="1">
          <mxGeometry x="1040" y="400" width="160" height="160" as="geometry" />
        </mxCell>
        <mxCell id="msxF5Zu8iGyvd2vgmSOW-61" value="+nome:String&#xa;+ Skin: String&#xa;+ Partene:String&#xa;+Nivel_desgate: float&#xa;+Dano: float" style="text;strokeColor=none;fillColor=none;align=left;verticalAlign=top;spacingLeft=4;spacingRight=4;overflow=hidden;rotatable=0;points=[[0,0.5],[1,0.5]];portConstraint=eastwest;" vertex="1" parent="msxF5Zu8iGyvd2vgmSOW-9">
          <mxGeometry y="26" width="160" height="84" as="geometry" />
        </mxCell>
        <mxCell id="msxF5Zu8iGyvd2vgmSOW-11" value="" style="line;strokeWidth=1;fillColor=none;align=left;verticalAlign=middle;spacingTop=-1;spacingLeft=3;spacingRight=3;rotatable=0;labelPosition=right;points=[];portConstraint=eastwest;" vertex="1" parent="msxF5Zu8iGyvd2vgmSOW-9">
          <mxGeometry y="110" width="160" height="8" as="geometry" />
        </mxCell>
        <mxCell id="msxF5Zu8iGyvd2vgmSOW-62" value="+ spray(): void&#xa;+animacao():void" style="text;strokeColor=none;fillColor=none;align=left;verticalAlign=top;spacingLeft=4;spacingRight=4;overflow=hidden;rotatable=0;points=[[0,0.5],[1,0.5]];portConstraint=eastwest;" vertex="1" parent="msxF5Zu8iGyvd2vgmSOW-9">
          <mxGeometry y="118" width="160" height="42" as="geometry" />
        </mxCell>
        <mxCell id="msxF5Zu8iGyvd2vgmSOW-22" value="Faca" style="swimlane;fontStyle=1;align=center;verticalAlign=top;childLayout=stackLayout;horizontal=1;startSize=26;horizontalStack=0;resizeParent=1;resizeParentMax=0;resizeLast=0;collapsible=1;marginBottom=0;" vertex="1" parent="1">
          <mxGeometry x="970" y="570" width="160" height="160" as="geometry" />
        </mxCell>
        <mxCell id="msxF5Zu8iGyvd2vgmSOW-23" value="+nome:String&#xa;+ Skin: String&#xa;+ Partene:String&#xa;+Nivel_desgate: float&#xa;+Dano: float" style="text;strokeColor=none;fillColor=none;align=left;verticalAlign=top;spacingLeft=4;spacingRight=4;overflow=hidden;rotatable=0;points=[[0,0.5],[1,0.5]];portConstraint=eastwest;" vertex="1" parent="msxF5Zu8iGyvd2vgmSOW-22">
          <mxGeometry y="26" width="160" height="84" as="geometry" />
        </mxCell>
        <mxCell id="msxF5Zu8iGyvd2vgmSOW-24" value="" style="line;strokeWidth=1;fillColor=none;align=left;verticalAlign=middle;spacingTop=-1;spacingLeft=3;spacingRight=3;rotatable=0;labelPosition=right;points=[];portConstraint=eastwest;" vertex="1" parent="msxF5Zu8iGyvd2vgmSOW-22">
          <mxGeometry y="110" width="160" height="8" as="geometry" />
        </mxCell>
        <mxCell id="msxF5Zu8iGyvd2vgmSOW-25" value="+ spray(): void&#xa;+animacao():void" style="text;strokeColor=none;fillColor=none;align=left;verticalAlign=top;spacingLeft=4;spacingRight=4;overflow=hidden;rotatable=0;points=[[0,0.5],[1,0.5]];portConstraint=eastwest;" vertex="1" parent="msxF5Zu8iGyvd2vgmSOW-22">
          <mxGeometry y="118" width="160" height="42" as="geometry" />
        </mxCell>
        <mxCell id="msxF5Zu8iGyvd2vgmSOW-44" style="edgeStyle=orthogonalEdgeStyle;rounded=0;orthogonalLoop=1;jettySize=auto;html=1;" edge="1" parent="1" source="msxF5Zu8iGyvd2vgmSOW-26" target="msxF5Zu8iGyvd2vgmSOW-1">
          <mxGeometry relative="1" as="geometry" />
        </mxCell>
        <mxCell id="msxF5Zu8iGyvd2vgmSOW-56" value="1,10" style="edgeLabel;html=1;align=center;verticalAlign=middle;resizable=0;points=[];" vertex="1" connectable="0" parent="msxF5Zu8iGyvd2vgmSOW-44">
          <mxGeometry x="-0.76" y="1" relative="1" as="geometry">
            <mxPoint x="-1" y="-4" as="offset" />
          </mxGeometry>
        </mxCell>
        <mxCell id="msxF5Zu8iGyvd2vgmSOW-57" value="cotem" style="edgeLabel;html=1;align=center;verticalAlign=middle;resizable=0;points=[];" vertex="1" connectable="0" parent="msxF5Zu8iGyvd2vgmSOW-44">
          <mxGeometry x="-0.3078" y="-1" relative="1" as="geometry">
            <mxPoint as="offset" />
          </mxGeometry>
        </mxCell>
        <mxCell id="msxF5Zu8iGyvd2vgmSOW-26" value="Mapa" style="swimlane;fontStyle=1;align=center;verticalAlign=top;childLayout=stackLayout;horizontal=1;startSize=26;horizontalStack=0;resizeParent=1;resizeParentMax=0;resizeLast=0;collapsible=1;marginBottom=0;" vertex="1" parent="1">
          <mxGeometry x="680" y="40" width="160" height="110" as="geometry" />
        </mxCell>
        <mxCell id="msxF5Zu8iGyvd2vgmSOW-27" value="+Nome:String&#xa;+ nome_lugares:String&#xa;&#xa;" style="text;strokeColor=none;fillColor=none;align=left;verticalAlign=top;spacingLeft=4;spacingRight=4;overflow=hidden;rotatable=0;points=[[0,0.5],[1,0.5]];portConstraint=eastwest;" vertex="1" parent="msxF5Zu8iGyvd2vgmSOW-26">
          <mxGeometry y="26" width="160" height="34" as="geometry" />
        </mxCell>
        <mxCell id="msxF5Zu8iGyvd2vgmSOW-28" value="" style="line;strokeWidth=1;fillColor=none;align=left;verticalAlign=middle;spacingTop=-1;spacingLeft=3;spacingRight=3;rotatable=0;labelPosition=right;points=[];portConstraint=eastwest;" vertex="1" parent="msxF5Zu8iGyvd2vgmSOW-26">
          <mxGeometry y="60" width="160" height="8" as="geometry" />
        </mxCell>
        <mxCell id="msxF5Zu8iGyvd2vgmSOW-29" value="+ obstaculos(): void&#xa;+destruicao_cenario():void&#xa;" style="text;strokeColor=none;fillColor=none;align=left;verticalAlign=top;spacingLeft=4;spacingRight=4;overflow=hidden;rotatable=0;points=[[0,0.5],[1,0.5]];portConstraint=eastwest;" vertex="1" parent="msxF5Zu8iGyvd2vgmSOW-26">
          <mxGeometry y="68" width="160" height="42" as="geometry" />
        </mxCell>
        <mxCell id="msxF5Zu8iGyvd2vgmSOW-30" value="Ultiliaria" style="swimlane;fontStyle=1;align=center;verticalAlign=top;childLayout=stackLayout;horizontal=1;startSize=26;horizontalStack=0;resizeParent=1;resizeParentMax=0;resizeLast=0;collapsible=1;marginBottom=0;" vertex="1" parent="1">
          <mxGeometry x="360" y="293" width="160" height="130" as="geometry" />
        </mxCell>
        <mxCell id="msxF5Zu8iGyvd2vgmSOW-31" value="+nome:String&#xa;+tipo:String&#xa;+Dano:float" style="text;strokeColor=none;fillColor=none;align=left;verticalAlign=top;spacingLeft=4;spacingRight=4;overflow=hidden;rotatable=0;points=[[0,0.5],[1,0.5]];portConstraint=eastwest;" vertex="1" parent="msxF5Zu8iGyvd2vgmSOW-30">
          <mxGeometry y="26" width="160" height="54" as="geometry" />
        </mxCell>
        <mxCell id="msxF5Zu8iGyvd2vgmSOW-32" value="" style="line;strokeWidth=1;fillColor=none;align=left;verticalAlign=middle;spacingTop=-1;spacingLeft=3;spacingRight=3;rotatable=0;labelPosition=right;points=[];portConstraint=eastwest;" vertex="1" parent="msxF5Zu8iGyvd2vgmSOW-30">
          <mxGeometry y="80" width="160" height="8" as="geometry" />
        </mxCell>
        <mxCell id="msxF5Zu8iGyvd2vgmSOW-33" value="+ tempo_explosao(): void&#xa;+ impacto():void" style="text;strokeColor=none;fillColor=none;align=left;verticalAlign=top;spacingLeft=4;spacingRight=4;overflow=hidden;rotatable=0;points=[[0,0.5],[1,0.5]];portConstraint=eastwest;" vertex="1" parent="msxF5Zu8iGyvd2vgmSOW-30">
          <mxGeometry y="88" width="160" height="42" as="geometry" />
        </mxCell>
      </root>
    </mxGraphModel>
  </diagram>
</mxfile>
